<?xml version="1.0" encoding="UTF-8" standalone="no"?>
<!-- Generator: Adobe Illustrator 13.0.2, SVG Export Plug-In . SVG Version: 6.00 Build 14948)  -->

<svg
   xmlns:dc="http://purl.org/dc/elements/1.1/"
   xmlns:cc="http://creativecommons.org/ns#"
   xmlns:rdf="http://www.w3.org/1999/02/22-rdf-syntax-ns#"
   xmlns:svg="http://www.w3.org/2000/svg"
   xmlns="http://www.w3.org/2000/svg"
   xmlns:sodipodi="http://sodipodi.sourceforge.net/DTD/sodipodi-0.dtd"
   xmlns:inkscape="http://www.inkscape.org/namespaces/inkscape"
   version="1.1"
   id="Layer_1"
   x="0px"
   y="0px"
   width="67.32283"
   height="35.433071"
   viewBox="0 0 67.322832 35.43307"
   enable-background="new 0 0 116.477 54.248"
   xml:space="preserve"
   inkscape:version="0.48.3.1 r9886"
   sodipodi:docname="itr_logo.pdf"><metadata
   id="metadata15"><rdf:RDF><cc:Work
       rdf:about=""><dc:format>image/svg+xml</dc:format><dc:type
         rdf:resource="http://purl.org/dc/dcmitype/StillImage" /><dc:title></dc:title></cc:Work></rdf:RDF></metadata><defs
   id="defs13" /><sodipodi:namedview
   pagecolor="#ffffff"
   bordercolor="#666666"
   borderopacity="1"
   objecttolerance="10"
   gridtolerance="10"
   guidetolerance="10"
   inkscape:pageopacity="0"
   inkscape:pageshadow="2"
   inkscape:window-width="1113"
   inkscape:window-height="900"
   id="namedview11"
   showgrid="false"
   fit-margin-top="0"
   fit-margin-left="0"
   fit-margin-right="0"
   fit-margin-bottom="0"
   inkscape:zoom="7.7948878"
   inkscape:cx="34.698992"
   inkscape:cy="6.6838939"
   inkscape:window-x="54"
   inkscape:window-y="24"
   inkscape:window-maximized="0"
   inkscape:current-layer="g3"
   units="mm" />
<g
   id="g3"
   transform="matrix(2.7643162,0,0,2.3775783,0,-58.638191)">
	
	
	<g
   id="g2985"
   transform="matrix(1.0116253,0,0,1,-1.7343352,0.15261609)"><path
     style="fill:#99c1e5"
     inkscape:connector-curvature="0"
     id="path5"
     d="M 1.7146797,38.092626 V 25.980358 H 4.2352033 V 38.092626 H 1.7146797 z" /><path
     style="fill:#99c1e5"
     inkscape:connector-curvature="0"
     id="path7"
     d="M 8.7699988,38.092626 V 27.641798 h -4.337537 v -1.66144 H 15.636224 v 1.66144 H 11.298688 V 38.092626 H 8.7699988 z" /><path
     style="fill:#99c1e5"
     inkscape:connector-curvature="0"
     id="path9"
     d="M 15.830045,38.092626 V 25.980358 h 4.533935 c 2.460788,0 3.690752,1.001334 3.690752,3.003571 0,0.747347 -0.208432,1.428082 -0.626155,2.041774 -0.417295,0.613693 -0.991449,1.084277 -1.722466,1.411753 l 3.961069,5.65517 h -3.068894 l -3.00357,-4.951229 h -1.391124 v 4.951229 h -2.373547 z m 2.373547,-6.612669 h 0.581032 c 1.827756,0 2.741419,-0.739182 2.741419,-2.217975 0,-1.08041 -0.815679,-1.620614 -2.447036,-1.620614 h -0.875845 v 3.838589 z" /></g>
</g>
</svg>