<?xml version="1.0" encoding="UTF-8" standalone="no"?>
<!-- Generator: Adobe Illustrator 13.0.2, SVG Export Plug-In . SVG Version: 6.00 Build 14948)  -->

<svg
   xmlns:dc="http://purl.org/dc/elements/1.1/"
   xmlns:cc="http://creativecommons.org/ns#"
   xmlns:rdf="http://www.w3.org/1999/02/22-rdf-syntax-ns#"
   xmlns:svg="http://www.w3.org/2000/svg"
   xmlns="http://www.w3.org/2000/svg"
   xmlns:xlink="http://www.w3.org/1999/xlink"
   xmlns:sodipodi="http://sodipodi.sourceforge.net/DTD/sodipodi-0.dtd"
   xmlns:inkscape="http://www.inkscape.org/namespaces/inkscape"
   version="1.0"
   id="Layer_1"
   x="0px"
   y="0px"
   width="453.54327"
   height="35.433022"
   viewBox="0 0 36.845 43.541"
   enable-background="new 0 0 36.845 43.541"
   xml:space="preserve"
   sodipodi:version="0.32"
   inkscape:version="0.48.3.1 r9886"
   sodipodi:docname="itr_logo_foot_full_2.pdf"
   inkscape:output_extension="org.inkscape.output.svg.inkscape"><metadata
   id="metadata12"><rdf:RDF><cc:Work
       rdf:about=""><dc:format>image/svg+xml</dc:format><dc:type
         rdf:resource="http://purl.org/dc/dcmitype/StillImage" /><dc:title></dc:title></cc:Work></rdf:RDF></metadata><defs
   id="defs10"><clipPath
     id="SVGID_12_">
				<rect
   y="0"
   x="0"
   height="28.35"
   width="53.050999"
   id="use2551" />
			</clipPath><clipPath
     id="SVGID_10_">
			<use
   xlink:href="#SVGID_9_"
   overflow="visible"
   id="use2543"
   style="overflow:visible"
   x="0"
   y="0"
   width="53.050999"
   height="28.35" />
		</clipPath><clipPath
     id="SVGID_8_">
		<rect
   x="0"
   id="use2535"
   y="0.029999999"
   width="53.049999"
   height="28.32" />
	</clipPath><inkscape:perspective
     sodipodi:type="inkscape:persp3d"
     inkscape:vp_x="0 : 21.7705 : 1"
     inkscape:vp_y="0 : 1000 : 0"
     inkscape:vp_z="36.845001 : 21.7705 : 1"
     inkscape:persp3d-origin="18.422501 : 14.513667 : 1"
     id="perspective14" /><inkscape:perspective
     id="perspective2394"
     inkscape:persp3d-origin="372.04724 : 350.78739 : 1"
     inkscape:vp_z="744.09448 : 526.18109 : 1"
     inkscape:vp_y="0 : 1000 : 0"
     inkscape:vp_x="0 : 526.18109 : 1"
     sodipodi:type="inkscape:persp3d" /><inkscape:perspective
     id="perspective2796"
     inkscape:persp3d-origin="26.525499 : 9.4500001 : 1"
     inkscape:vp_z="53.050999 : 14.175 : 1"
     inkscape:vp_y="0 : 1000 : 0"
     inkscape:vp_x="0 : 14.175 : 1"
     sodipodi:type="inkscape:persp3d" /><inkscape:perspective
     id="perspective2941"
     inkscape:persp3d-origin="26.525499 : 9.4500001 : 1"
     inkscape:vp_z="53.050999 : 14.175 : 1"
     inkscape:vp_y="0 : 1000 : 0"
     inkscape:vp_x="0 : 14.175 : 1"
     sodipodi:type="inkscape:persp3d" /></defs><sodipodi:namedview
   inkscape:window-height="386"
   inkscape:window-width="1918"
   inkscape:pageshadow="2"
   inkscape:pageopacity="0.0"
   guidetolerance="10.0"
   gridtolerance="10.0"
   objecttolerance="10.0"
   borderopacity="1.0"
   bordercolor="#666666"
   pagecolor="#ffffff"
   id="base"
   showgrid="false"
   inkscape:zoom="1.0606602"
   inkscape:cx="19.539007"
   inkscape:cy="18.616978"
   inkscape:window-x="0"
   inkscape:window-y="340"
   inkscape:current-layer="g3"
   borderlayer="true"
   units="mm"
   showborder="true"
   inkscape:window-maximized="0" />
<g
   id="g3"
   transform="translate(69.646334,-2.8029865)">
	<g
   id="g3169"
   transform="matrix(0.9259204,0,0,0.7772123,176.02415,10.28192)"><path
     style="fill:#ffffff;fill-opacity:1;fill-rule:evenodd;stroke:none;stroke-width:1px;stroke-linecap:butt;stroke-linejoin:miter;stroke-opacity:1"
     d="M 49.414121,-9.6227668 L 29.112359,-9.6227678 L 41.398808,3.774126 C 41.398808,-1.4399848 41.169102,-3.3717488 42.939978,-6.1071971 C 44.691437,-8.8126518 48.010704,-9.6227668 49.414121,-9.6227668 z"
     id="path3167"
     sodipodi:nodetypes="ccczc" /><path
     sodipodi:nodetypes="ccczc"
     id="path3165"
     d="M -12.572374,-9.6227668 L 7.729388,-9.6227678 L -4.5570606,3.774129 C -4.5570606,-1.4399848 -4.3273546,-3.3717488 -6.0982306,-6.1071969 C -7.8496896,-8.8126518 -11.168957,-9.6227668 -12.572374,-9.6227668 z"
     style="fill:#ffffff;fill-opacity:1;fill-rule:evenodd;stroke:none;stroke-width:1px;stroke-linecap:butt;stroke-linejoin:miter;stroke-opacity:1" /><rect
     rx="8.4527607"
     ry="8.9213047"
     y="-9.6227674"
     x="-4.5304384"
     height="55.330685"
     width="46.428921"
     id="rect2387"
     style="fill:#ffffff;fill-opacity:1;stroke:none;stroke-width:2.70000005;stroke-miterlimit:4;stroke-dasharray:none;stroke-opacity:1" /></g>
	
<g
   clip-path="url(#SVGID_8_)"
   id="g2537"
   transform="matrix(1.2288238,0,0,1.2288238,-318.28958,5.1879358)">
		<defs
   id="defs2539">
			<rect
   id="SVGID_9_"
   width="53.050999"
   height="28.35"
   x="0"
   y="0" />
		</defs>
		<clipPath
   id="clipPath2573">
			<use
   xlink:href="#SVGID_9_"
   overflow="visible"
   id="use2575"
   style="overflow:visible"
   x="0"
   y="0"
   width="53.050999"
   height="28.35" />
		</clipPath>
		
	</g><g
   id="g2944"
   transform="matrix(1.1546449,0,0,1.1451624,61.410714,-66.359055)"
   style="fill:#0065bd;fill-opacity:1"><g
     id="g2908"
     transform="translate(-327.5766,65.63252)"
     style="fill:#0065bd;fill-opacity:1;stroke:none;stroke-opacity:1">
	<defs
   id="defs2910">
		<rect
   height="28.32"
   width="53.049999"
   y="0.029999999"
   id="SVGID_7_"
   x="0" />
	</defs>
	<clipPath
   id="clipPath2965">
		<use
   id="use2914"
   overflow="visible"
   xlink:href="#SVGID_7_"
   style="overflow:visible"
   x="0"
   y="0"
   width="36.845001"
   height="43.541" />
	</clipPath>
	<path
   style="fill:#0065bd;fill-opacity:1;fill-rule:evenodd;stroke:none;stroke-width:1px;stroke-linecap:butt;stroke-linejoin:miter;stroke-opacity:1"
   d="M -1.0245644,-0.48600566 L -1.0245644,5.0686319 L 3.6814843,5.0686319 L 3.6814843,27.742707 L 9.2612891,27.742707 L 9.2612891,5.0686319 L 14.038122,5.0686319 L 14.038122,27.742707 L 30.429046,27.742707 L 30.429046,5.3650251 L 35.350144,5.3650251 L 35.350144,27.742707 L 41.155835,27.742707 L 41.155835,5.3650251 L 46.155856,5.3650251 L 46.155856,27.742707 L 51.961544,27.742707 L 51.961544,-0.48600566 L 24.770331,-0.48600566 L 24.770331,22.116706 L 19.773034,22.116706 L 19.773034,-0.48600566 L -1.0245644,-0.48600566 z"
   id="path3271"
   sodipodi:nodetypes="ccccccccccccccccccccccc" />
<path
   style="fill:none;fill-rule:evenodd;stroke:#787878;stroke-width:0.87351548999999984px;stroke-linecap:butt;stroke-linejoin:miter;stroke-opacity:1"
   d="M -0.96853756,-4.5214004 L 458.15046,-4.5214004"
   id="path3275"
   sodipodi:nodetypes="cc" /></g></g>
<g
   id="g2985"
   transform="matrix(2.7707206,0,0,2.3668078,146.8463,-51.56069)"><path
     style="fill:#99c1e5"
     inkscape:connector-curvature="0"
     id="path5-1"
     d="M 1.7146797,38.092626 V 25.980358 H 4.2352033 V 38.092626 H 1.7146797 z" /><path
     style="fill:#99c1e5"
     inkscape:connector-curvature="0"
     id="path7-6"
     d="M 8.7699988,38.092626 V 27.641798 h -4.337537 v -1.66144 H 15.636224 v 1.66144 H 11.298688 V 38.092626 H 8.7699988 z" /><path
     style="fill:#99c1e5"
     inkscape:connector-curvature="0"
     id="path9"
     d="M 15.830045,38.092626 V 25.980358 h 4.533935 c 2.460788,0 3.690752,1.001334 3.690752,3.003571 0,0.747347 -0.208432,1.428082 -0.626155,2.041774 -0.417295,0.613693 -0.991449,1.084277 -1.722466,1.411753 l 3.961069,5.65517 h -3.068894 l -3.00357,-4.951229 h -1.391124 v 4.951229 h -2.373547 z m 2.373547,-6.612669 h 0.581032 c 1.827756,0 2.741419,-0.739182 2.741419,-2.217975 0,-1.08041 -0.815679,-1.620614 -2.447036,-1.620614 h -0.875845 v 3.838589 z" /></g></g>
</svg>