<?xml version="1.0" encoding="UTF-8" standalone="no"?>
<!-- Generator: Adobe Illustrator 13.0.2, SVG Export Plug-In . SVG Version: 6.00 Build 14948)  -->

<svg
   xmlns:dc="http://purl.org/dc/elements/1.1/"
   xmlns:cc="http://creativecommons.org/ns#"
   xmlns:rdf="http://www.w3.org/1999/02/22-rdf-syntax-ns#"
   xmlns:svg="http://www.w3.org/2000/svg"
   xmlns="http://www.w3.org/2000/svg"
   xmlns:xlink="http://www.w3.org/1999/xlink"
   xmlns:sodipodi="http://sodipodi.sourceforge.net/DTD/sodipodi-0.dtd"
   xmlns:inkscape="http://www.inkscape.org/namespaces/inkscape"
   version="1.0"
   id="Layer_1"
   x="0px"
   y="0px"
   width="453.54269"
   height="35.43298"
   viewBox="0 0 36.845 43.541"
   enable-background="new 0 0 36.845 43.541"
   xml:space="preserve"
   sodipodi:version="0.32"
   inkscape:version="0.48.3.1 r9886"
   sodipodi:docname="itr_logo_foot_full_3.eps"
   inkscape:output_extension="org.inkscape.output.svg.inkscape"><metadata
   id="metadata12"><rdf:RDF><cc:Work
       rdf:about=""><dc:format>image/svg+xml</dc:format><dc:type
         rdf:resource="http://purl.org/dc/dcmitype/StillImage" /><dc:title></dc:title></cc:Work></rdf:RDF></metadata><defs
   id="defs10"><clipPath
     id="SVGID_12_">
				<rect
   y="0"
   x="0"
   height="28.35"
   width="53.050999"
   id="use2551" />
			</clipPath><clipPath
     id="SVGID_10_">
			<use
   xlink:href="#SVGID_9_"
   overflow="visible"
   id="use2543"
   style="overflow:visible"
   x="0"
   y="0"
   width="53.050999"
   height="28.35" />
		</clipPath><clipPath
     id="SVGID_8_">
		<rect
   x="0"
   id="use2535"
   y="0.029999999"
   width="53.049999"
   height="28.32" />
	</clipPath><inkscape:perspective
     sodipodi:type="inkscape:persp3d"
     inkscape:vp_x="0 : 21.7705 : 1"
     inkscape:vp_y="0 : 1000 : 0"
     inkscape:vp_z="36.845001 : 21.7705 : 1"
     inkscape:persp3d-origin="18.422501 : 14.513667 : 1"
     id="perspective14" /><inkscape:perspective
     id="perspective2394"
     inkscape:persp3d-origin="372.04724 : 350.78739 : 1"
     inkscape:vp_z="744.09448 : 526.18109 : 1"
     inkscape:vp_y="0 : 1000 : 0"
     inkscape:vp_x="0 : 526.18109 : 1"
     sodipodi:type="inkscape:persp3d" /><inkscape:perspective
     id="perspective2796"
     inkscape:persp3d-origin="26.525499 : 9.4500001 : 1"
     inkscape:vp_z="53.050999 : 14.175 : 1"
     inkscape:vp_y="0 : 1000 : 0"
     inkscape:vp_x="0 : 14.175 : 1"
     sodipodi:type="inkscape:persp3d" /><inkscape:perspective
     id="perspective2941"
     inkscape:persp3d-origin="26.525499 : 9.4500001 : 1"
     inkscape:vp_z="53.050999 : 14.175 : 1"
     inkscape:vp_y="0 : 1000 : 0"
     inkscape:vp_x="0 : 14.175 : 1"
     sodipodi:type="inkscape:persp3d" /></defs><sodipodi:namedview
   inkscape:window-height="413"
   inkscape:window-width="1918"
   inkscape:pageshadow="2"
   inkscape:pageopacity="0.0"
   guidetolerance="10.0"
   gridtolerance="10.0"
   objecttolerance="10.0"
   borderopacity="1.0"
   bordercolor="#666666"
   pagecolor="#ffffff"
   id="base"
   showgrid="false"
   inkscape:zoom="3.0000001"
   inkscape:cx="205.24488"
   inkscape:cy="31.384316"
   inkscape:window-x="21"
   inkscape:window-y="679"
   inkscape:current-layer="g3"
   borderlayer="true"
   units="mm"
   showborder="true"
   inkscape:window-maximized="0"
   showguides="true"
   inkscape:guide-bbox="true" />
<g
   id="g3"
   transform="translate(69.645993,-2.8955088)">
	<g
   id="g3169"
   transform="matrix(1.6693244,0,0,0.775103,147.36722,10.354145)"><path
     style="fill:#ffffff;fill-opacity:1;fill-rule:evenodd;stroke:none"
     d="m 49.414121,-9.6227668 -20.301762,-10e-7 12.286449,13.3968938 c 0,-5.2141108 -0.229706,-7.1458748 1.54117,-9.8813231 1.751459,-2.7054547 5.070726,-3.5155697 6.474143,-3.5155697 z"
     id="path3167"
     sodipodi:nodetypes="ccczc"
     inkscape:connector-curvature="0" /><path
     sodipodi:nodetypes="ccczc"
     id="path3165"
     d="m -12.572374,-9.6227668 20.301762,-10e-7 L -4.5570606,3.774129 c 0,-5.2141138 0.229706,-7.1458778 -1.54117,-9.8813259 -1.751459,-2.7054549 -5.0707264,-3.5155699 -6.4741434,-3.5155699 z"
     style="fill:#ffffff;fill-opacity:1;fill-rule:evenodd;stroke:none"
     inkscape:connector-curvature="0" /><rect
     rx="8.4527607"
     ry="8.9213047"
     y="-9.6227674"
     x="-4.5304384"
     height="52.860268"
     width="45.910507"
     id="rect2387"
     style="fill:#ffffff;fill-opacity:1;stroke:none" /></g>
	
<g
   clip-path="url(#SVGID_8_)"
   id="g2537"
   transform="matrix(1.2288238,0,0,1.2288238,-318.28958,5.1879358)">
		<defs
   id="defs2539">
			<rect
   id="SVGID_9_"
   width="53.050999"
   height="28.35"
   x="0"
   y="0" />
		</defs>
		<clipPath
   id="clipPath2573">
			<use
   xlink:href="#SVGID_9_"
   overflow="visible"
   id="use2575"
   style="overflow:visible"
   x="0"
   y="0"
   width="53.050999"
   height="28.35" />
		</clipPath>
		
	</g><g
   id="g2944"
   transform="matrix(1.154645,0,0,1.1420545,61.410732,-66.258296)"><g
     id="g2908"
     transform="translate(-327.5766,65.63252)">
	<defs
   id="defs2910">
		<rect
   height="28.32"
   width="53.049999"
   y="0.029999999"
   id="SVGID_7_"
   x="0" />
	</defs>
	<clipPath
   id="clipPath2965">
		<use
   id="use2914"
   overflow="visible"
   xlink:href="#SVGID_7_"
   style="overflow:visible"
   x="0"
   y="0"
   width="36.845001"
   height="43.541" />
	</clipPath>
	<g
   id="g2916"
   clip-path="url(#SVGID_8_)">
		<defs
   id="defs2918">
			<rect
   height="28.35"
   width="53.050999"
   id="rect2970"
   x="0"
   y="0" />
		</defs>
		<clipPath
   id="clipPath2972">
			<use
   id="use2922"
   overflow="visible"
   xlink:href="#SVGID_9_"
   style="overflow:visible"
   x="0"
   y="0"
   width="36.845001"
   height="43.541" />
		</clipPath>
		<g
   id="g2924"
   clip-path="url(#SVGID_10_)">
			<defs
   id="defs2926">
				<rect
   height="28.35"
   width="53.050999"
   id="SVGID_11_"
   x="0"
   y="0" />
			</defs>
			<clipPath
   id="clipPath2978">
				<use
   id="use2930"
   overflow="visible"
   xlink:href="#SVGID_11_"
   style="overflow:visible"
   x="0"
   y="0"
   width="36.845001"
   height="43.541" />
			</clipPath>
			<path
   id="path2932"
   d="M 53.051,0 L 53.051,28.34 L 47.21,28.34 L 47.21,5.87 L 42.221,5.87 L 42.221,28.34 L 36.381,28.34 L 36.381,5.87 L 31.471,5.87 L 31.471,28.35 L 15.11,28.35 L 15.11,5.63 L 10.3,5.63 L 10.3,28.35 L 4.7,28.35 L 4.7,5.6 L 0,5.6 L 0,0.03 L 20.81,0.03 L 20.81,22.64 L 25.83,22.64 L 25.83,0 L 53.051,0 z M 52.381,27.669 L 52.381,0.669 L 26.5,0.669 L 26.5,23.309 L 20.15,23.309 L 20.15,0.7 L 0.67,0.7 L 0.67,4.93 L 5.37,4.93 L 5.37,27.68 L 9.63,27.68 L 9.63,4.97 L 15.78,4.97 L 15.78,27.68 L 30.801,27.68 L 30.801,5.21 L 37.051,5.21 L 37.051,27.669 L 41.561,27.669 L 41.561,5.21 L 47.881,5.21 L 47.881,27.669 L 52.381,27.669 z"
   clip-path="url(#SVGID_12_)"
   style="fill:#0065bd" />
			<polygon
   id="polygon2934"
   points="52.381,0.67 52.381,27.669 47.881,27.669 47.881,5.21 41.561,5.21 41.561,27.669 37.051,27.669 37.051,5.21 30.801,5.21 30.801,27.68 15.78,27.68 15.78,4.97 9.63,4.97 9.63,27.68 5.371,27.68 5.371,4.93 0.67,4.93 0.67,0.7 20.15,0.7 20.15,23.31 26.5,23.31 26.5,0.67 52.381,0.67 "
   clip-path="url(#SVGID_12_)"
   style="fill:#ffffff" />
		</g>
	</g>
</g></g>




<g
   id="g2985"
   transform="matrix(2.7707239,0,0,2.3668107,143.27597,-51.468294)"><path
     style="fill:#99c1e5"
     inkscape:connector-curvature="0"
     id="path5"
     d="M 1.7146797,38.092626 V 25.980358 H 4.2352033 V 38.092626 H 1.7146797 z" /><path
     style="fill:#99c1e5"
     inkscape:connector-curvature="0"
     id="path7"
     d="M 8.7699988,38.092626 V 27.641798 h -4.337537 v -1.66144 H 15.636224 v 1.66144 H 11.298688 V 38.092626 H 8.7699988 z" /><path
     style="fill:#99c1e5"
     inkscape:connector-curvature="0"
     id="path9"
     d="M 15.830045,38.092626 V 25.980358 h 4.533935 c 2.460788,0 3.690752,1.001334 3.690752,3.003571 0,0.747347 -0.208432,1.428082 -0.626155,2.041774 -0.417295,0.613693 -0.991449,1.084277 -1.722466,1.411753 l 3.961069,5.65517 h -3.068894 l -3.00357,-4.951229 h -1.391124 v 4.951229 h -2.373547 z m 2.373547,-6.612669 h 0.581032 c 1.827756,0 2.741419,-0.739182 2.741419,-2.217975 0,-1.08041 -0.815679,-1.620614 -2.447036,-1.620614 h -0.875845 v 3.838589 z" /></g><path
   inkscape:connector-curvature="0"
   style="fill:#0065bd;fill-opacity:1;fill-rule:evenodd;stroke:none"
   d="m -316.64818,8.1543757 0,6.3609693 5.43382,0 0,25.965529 6.4427,0 0,-25.965529 5.51555,0 0,25.965529 18.92572,0 0,-25.62611 5.68213,0 0,25.62611 6.70352,0 0,-25.62611 5.77325,0 0,25.62611 6.70352,0 0,-32.3264983 -31.39623,0 0,25.8838073 -5.77012,0 0,-25.8838073 -24.01386,0 z"
   id="path3271"
   sodipodi:nodetypes="ccccccccccccccccccccccc" /><path
   inkscape:connector-curvature="0"
   style="fill:none;stroke:#787878;stroke-width:1.00445127px;stroke-linecap:butt;stroke-linejoin:miter;stroke-opacity:1"
   d="m -317.64098,5.4756116 530.12003,0"
   id="path3275"
   sodipodi:nodetypes="cc" /></g>
</svg>