<?xml version="1.0" encoding="UTF-8" standalone="no"?>
<!-- Created with Inkscape (http://www.inkscape.org/) -->

<svg
   xmlns:dc="http://purl.org/dc/elements/1.1/"
   xmlns:cc="http://creativecommons.org/ns#"
   xmlns:rdf="http://www.w3.org/1999/02/22-rdf-syntax-ns#"
   xmlns:svg="http://www.w3.org/2000/svg"
   xmlns="http://www.w3.org/2000/svg"
   xmlns:sodipodi="http://sodipodi.sourceforge.net/DTD/sodipodi-0.dtd"
   xmlns:inkscape="http://www.inkscape.org/namespaces/inkscape"
   id="svg2"
   version="1.1"
   inkscape:version="0.48.4 r9939"
   width="332.5"
   height="232.5"
   xml:space="preserve"
   sodipodi:docname="general_setup.eps"><metadata
     id="metadata8"><rdf:RDF><cc:Work
         rdf:about=""><dc:format>image/svg+xml</dc:format><dc:type
           rdf:resource="http://purl.org/dc/dcmitype/StillImage" /><dc:title></dc:title></cc:Work></rdf:RDF></metadata><defs
     id="defs6" /><sodipodi:namedview
     pagecolor="#ffffff"
     bordercolor="#666666"
     borderopacity="1"
     objecttolerance="10"
     gridtolerance="10"
     guidetolerance="10"
     inkscape:pageopacity="0"
     inkscape:pageshadow="2"
     inkscape:window-width="1680"
     inkscape:window-height="995"
     id="namedview4"
     showgrid="false"
     inkscape:zoom="2.0301075"
     inkscape:cx="191.5618"
     inkscape:cy="67.615545"
     inkscape:window-x="0"
     inkscape:window-y="27"
     inkscape:window-maximized="1"
     inkscape:current-layer="g12" /><g
     id="g10"
     inkscape:groupmode="layer"
     inkscape:label="ink_ext_XXXXXX"
     transform="matrix(1.25,0,0,-1.25,0,232.5)"><g
       id="g12"
       transform="scale(0.1,0.1)"><path
         d="m 1820.31,1100.63 -20.58,-139.958 -60.82,11.527 20.58,139.961 60.82,-11.53 z"
         style="fill:#ffffff;fill-opacity:1;fill-rule:nonzero;stroke:none"
         id="path14" /><path
         d="m 323.48,594.852 c -23.601,0.199 -43.441,18.437 -44.378,40.75 -0.903,22.296 17.5,40.226 41.058,40 23.59,-0.204 43.43,-18.442 44.328,-40.75 0.942,-22.301 -17.457,-40.231 -41.008,-40 z"
         style="fill:#999999;fill-opacity:1;fill-rule:evenodd;stroke:none"
         id="path16" /><g
         id="g18"
         transform="matrix(0.0379873,-0.929102,-1.02375,0.00916463,0,0)"><path
           d="m -643.6,-339.859 c 0.021,23.051 -19.429,41.709 -43.435,41.738 -24.011,-0.01 -43.49,-18.704 -43.469,-41.719 -0.012,-23.043 19.438,-41.709 43.449,-41.688 23.998,-0.033 43.484,18.666 43.455,41.669 z"
           style="fill:none;stroke:#000000;stroke-opacity:1;stroke-width:3.88883;stroke-linecap:butt;stroke-linejoin:miter;stroke-miterlimit:4;stroke-dasharray:none"
           id="path20" /></g><path
         d="m 607.77,502.391 -20,-35.942 L 353.051,597 373.09,632.98 607.77,502.391 z"
         style="fill:#b3b3b3;fill-opacity:1;fill-rule:nonzero;stroke:none"
         id="path22" /><path
         d="M 607.77,502.391 587.773,466.449 353.047,596.996 373.082,632.98 607.77,502.391 z"
         style="fill:none;stroke:#000000;stroke-opacity:1;stroke-width:3.78978;stroke-linecap:butt;stroke-linejoin:miter;stroke-miterlimit:4;stroke-dasharray:none"
         id="path24" /><path
         d="M 922.34,590.559 936.988,552.121 686.051,456.488 671.41,494.93 922.34,590.559 z"
         style="fill:#b3b3b3;fill-opacity:1;fill-rule:nonzero;stroke:none"
         id="path26" /><path
         d="M 922.34,590.555 936.996,552.121 686.055,456.5 671.402,494.926 922.34,590.555 z"
         style="fill:none;stroke:#000000;stroke-opacity:1;stroke-width:3.78977;stroke-linecap:butt;stroke-linejoin:miter;stroke-miterlimit:4;stroke-dasharray:none"
         id="path28" /><path
         d="m 638.98,422.941 c -23.589,0.231 -43.429,18.481 -44.332,40.778 -0.898,22.301 17.461,40.203 41.012,40 23.602,-0.199 43.442,-18.481 44.379,-40.778 0.902,-22.269 -17.461,-40.203 -41.059,-40 z"
         style="fill:#999999;fill-opacity:1;fill-rule:evenodd;stroke:none"
         id="path30" /><g
         id="g32"
         transform="matrix(0.0379873,-0.929102,-1.02375,0.00916463,0,0)"><path
           d="m -461.541,-641.293 c -0.021,23.054 -19.467,41.712 -43.478,41.702 -24.011,-0.021 -43.451,-18.668 -43.467,-41.681 -0.009,-23.043 19.475,-41.711 43.485,-41.728 23.961,0.007 43.451,18.664 43.46,41.707 z"
           style="fill:none;stroke:#000000;stroke-opacity:1;stroke-width:3.88883;stroke-linecap:butt;stroke-linejoin:miter;stroke-miterlimit:4;stroke-dasharray:none"
           id="path34" /></g><path
         d="m 972.66,544.07 c -23.558,0.239 -43.398,18.481 -44.34,40.782 -0.898,22.308 17.461,40.199 41.059,40 23.59,-0.231 43.431,-18.473 44.331,-40.782 0.9,-22.3 -17.46,-40.191 -41.05,-40 z"
         style="fill:#999999;fill-opacity:1;fill-rule:evenodd;stroke:none"
         id="path36" /><g
         id="g38"
         transform="matrix(0.0379873,-0.929102,-1.02375,0.00916463,0,0)"><path
           d="m -595.177,-972.184 c -0.029,23.015 -19.48,41.669 -43.478,41.698 -24.011,-0.017 -43.45,-18.664 -43.468,-41.719 0.029,-23.041 19.475,-41.705 43.478,-41.695 24.007,0.02 43.447,18.673 43.468,41.716 z"
           style="fill:none;stroke:#000000;stroke-opacity:1;stroke-width:3.88883;stroke-linecap:butt;stroke-linejoin:miter;stroke-miterlimit:4;stroke-dasharray:none"
           id="path40" /></g><path
         d="m 1011.48,541.059 0.43,93.992 30.79,22.969 c -6.18,-22.661 -9.42,-46.02 -9.58,-69.532 -0.15,-23.558 2.78,-47.308 8.95,-70.707 l -30.59,23.278 z"
         style="fill:#b3b3b3;fill-opacity:1;fill-rule:nonzero;stroke:none"
         id="path42" /><path
         d="m 1011.48,541.066 0.43,93.981 30.79,22.969 c -6.18,-22.649 -9.42,-46.012 -9.58,-69.532 -0.15,-23.546 2.78,-47.296 8.95,-70.699 l -30.59,23.281 z"
         style="fill:none;stroke:#000000;stroke-opacity:1;stroke-width:2.89226;stroke-linecap:butt;stroke-linejoin:miter;stroke-miterlimit:4;stroke-dasharray:none"
         id="path44" /><path
         d="m 1655.9,246.141 c -23.52,-1.403 -44.61,15.429 -47.03,37.621 -2.46,22.187 14.61,41.328 38.16,42.726 23.52,1.453 44.57,-15.386 47.03,-37.566 2.46,-22.192 -14.61,-41.332 -38.16,-42.781 z"
         style="fill:#999999;fill-opacity:1;fill-rule:evenodd;stroke:none"
         id="path46" /><g
         id="g48"
         transform="matrix(0.0970416,-0.875845,-0.968421,-0.0586925,0,0)"><path
           d="m -165.338,-1726.46 c -0.021,24.27 -20.57,44 -45.9,43.97 -25.328,0 -45.868,-19.69 -45.839,-44.01 -0.019,-24.28 20.519,-43.97 45.847,-43.97 25.333,0 45.872,19.68 45.892,44.01 z"
           style="fill:none;stroke:#000000;stroke-opacity:1;stroke-width:4.10364;stroke-linecap:butt;stroke-linejoin:miter;stroke-miterlimit:4;stroke-dasharray:none"
           id="path50" /></g><path
         d="m 1762.58,730.52 c -23.56,-1.45 -44.61,15.39 -47.07,37.582 -2.46,22.179 14.61,41.32 38.16,42.769 23.52,1.399 44.61,-15.43 47.07,-37.621 2.46,-22.191 -14.65,-41.328 -38.16,-42.73 z"
         style="fill:#999999;fill-opacity:1;fill-rule:evenodd;stroke:none"
         id="path52" /><g
         id="g54"
         transform="matrix(0.0970416,-0.875845,-0.968421,-0.0586925,0,0)"><path
           d="m -707.354,-1890.93 c 0.02,24.32 -20.521,44 -45.858,44.01 -25.333,-0.01 -45.859,-19.69 -45.879,-44.01 0.017,-24.28 20.557,-44 45.889,-44 25.338,-0.01 45.865,19.72 45.848,44 z"
           style="fill:none;stroke:#000000;stroke-opacity:1;stroke-width:4.10364;stroke-linecap:butt;stroke-linejoin:miter;stroke-miterlimit:4;stroke-dasharray:none"
           id="path56" /></g><path
         d="m 1964.69,42.1992 -12.31,39.2891 256.33,80.1597 12.27,-39.257 -256.29,-80.1918 z"
         style="fill:#b3b3b3;fill-opacity:1;fill-rule:nonzero;stroke:none"
         id="path58" /><path
         d="m 1964.68,42.1914 -12.3,39.2969 256.33,80.1637 12.27,-39.265 -256.3,-80.1956 z"
         style="fill:none;stroke:#000000;stroke-opacity:1;stroke-width:3.78977;stroke-linecap:butt;stroke-linejoin:miter;stroke-miterlimit:4;stroke-dasharray:none"
         id="path60" /><path
         d="m 2291.95,189.309 90.08,402.07 c 14.96,66.793 215.31,21.91 200.35,-44.891 L 2492.3,144.422 c -14.96,-66.7931 -215.31,-21.871 -200.35,44.887 z"
         style="fill:#b3b3b3;fill-opacity:1;fill-rule:nonzero;stroke:none"
         id="path62" /><path
         d="m 2291.95,189.305 90.08,402.07 c 14.96,66.801 215.31,21.91 200.35,-44.879 l -90.08,-402.07 c -14.96,-66.801 -215.31,-21.879 -200.35,44.879 z"
         style="fill:none;stroke:#000000;stroke-opacity:1;stroke-width:3.56879;stroke-linecap:butt;stroke-linejoin:miter;stroke-miterlimit:4;stroke-dasharray:none"
         id="path64" /><path
         d="m 2359.57,678.172 c 23.55,0.387 43.87,-17.344 45.35,-39.613 1.49,-22.297 -16.4,-40.661 -40,-41.047 -23.55,-0.391 -43.87,17.34 -45.35,39.609 -1.48,22.301 16.41,40.66 40,41.051 z"
         style="fill:#999999;fill-opacity:1;fill-rule:evenodd;stroke:none"
         id="path66" /><g
         id="g68"
         transform="matrix(-0.0607484,0.914084,1.00848,0.0166874,0,0)"><path
           d="m 698.432,2381.8 c 10e-4,23.36 -19.742,42.31 -44.105,42.32 -24.405,0 -44.136,-18.93 -44.136,-42.32 -10e-4,-23.36 19.742,-42.32 44.105,-42.32 24.392,0 44.136,18.93 44.136,42.32 z"
           style="fill:none;stroke:#000000;stroke-opacity:1;stroke-width:3.94733;stroke-linecap:butt;stroke-linejoin:miter;stroke-miterlimit:4;stroke-dasharray:none"
           id="path70" /></g><path
         d="m 2116.13,831.262 27.85,30.269 197.62,-181.871 -27.85,-30.281 -197.62,181.883 z"
         style="fill:#b3b3b3;fill-opacity:1;fill-rule:nonzero;stroke:none"
         id="path72" /><path
         d="m 2116.14,831.258 27.85,30.281 197.61,-181.887 -27.84,-30.269 -197.62,181.875 z"
         style="fill:none;stroke:#000000;stroke-opacity:1;stroke-width:3.792;stroke-linecap:butt;stroke-linejoin:miter;stroke-miterlimit:4;stroke-dasharray:none"
         id="path74" /><path
         d="m 1670.82,243.84 27.89,30.269 L 1896.29,92.1992 1868.44,61.9219 1670.82,243.84 z"
         style="fill:#b3b3b3;fill-opacity:1;fill-rule:nonzero;stroke:none"
         id="path76" /><path
         d="m 1670.81,243.836 27.9,30.273 L 1896.3,92.1953 1868.43,61.9219 1670.81,243.836 z"
         style="fill:none;stroke:#000000;stroke-opacity:1;stroke-width:3.78978;stroke-linecap:butt;stroke-linejoin:miter;stroke-miterlimit:4;stroke-dasharray:none"
         id="path78" /><path
         d="m 1805.16,761.879 -12.27,39.262 256.33,80.199 12.26,-39.262 -256.32,-80.199 z"
         style="fill:#b3b3b3;fill-opacity:1;fill-rule:nonzero;stroke:none"
         id="path80" /><path
         d="m 1805.15,761.883 -12.26,39.258 256.33,80.195 12.26,-39.254 -256.33,-80.199 z"
         style="fill:none;stroke:#000000;stroke-opacity:1;stroke-width:3.78977;stroke-linecap:butt;stroke-linejoin:miter;stroke-miterlimit:4;stroke-dasharray:none"
         id="path82" /><path
         d="m 2094.06,912.59 c 23.56,0.39 43.87,-17.352 45.35,-39.61 1.49,-22.269 -16.4,-40.628 -40,-41.019 -23.55,-0.391 -43.86,17.348 -45.35,39.609 -1.48,22.27 16.41,40.629 40,41.02 z"
         style="fill:#999999;fill-opacity:1;fill-rule:evenodd;stroke:none"
         id="path84" /><g
         id="g86"
         transform="matrix(-0.0607485,0.914084,1.00848,0.0166874,0,0)"><path
           d="m 959.398,2134.25 c 10e-4,23.36 -19.742,42.31 -44.104,42.31 -24.355,0.01 -44.098,-18.92 -44.094,-42.32 -0.001,-23.36 19.742,-42.31 44.105,-42.31 24.354,0 44.093,18.92 44.093,42.32 z"
           style="fill:none;stroke:#000000;stroke-opacity:1;stroke-width:3.94733;stroke-linecap:butt;stroke-linejoin:miter;stroke-miterlimit:4;stroke-dasharray:none"
           id="path88" /></g><path
         d="m 2253.44,192.199 c 23.55,0.391 43.86,-17.347 45.35,-39.609 1.48,-22.27 -16.41,-40.629 -40,-41.02 -23.56,-0.39 -43.87,17.352 -45.35,39.61 -1.49,22.269 16.4,40.629 40,41.019 z"
         style="fill:#999999;fill-opacity:1;fill-rule:evenodd;stroke:none"
         id="path90" /><g
         id="g92"
         transform="matrix(-0.0607485,0.914084,1.00848,0.0166874,0,0)"><path
           d="m 169.281,2244.69 c -0.003,23.35 -19.742,42.3 -44.109,42.31 -24.35,0 -44.0934,-18.93 -44.0937,-42.32 -0.001,-23.35 19.7417,-42.31 44.1047,-42.31 24.354,-0.01 44.098,18.92 44.098,42.32 z"
           style="fill:none;stroke:#000000;stroke-opacity:1;stroke-width:3.94733;stroke-linecap:butt;stroke-linejoin:miter;stroke-miterlimit:4;stroke-dasharray:none"
           id="path94" /></g><path
         d="m 1915.47,92.4688 c 23.59,0.3906 43.91,-17.3399 45.39,-39.6094 1.48,-22.2578 -16.45,-40.6602 -40.04,-41.0508 -23.55,-0.3867 -43.87,17.3828 -45.35,39.6406 -1.49,22.2696 16.44,40.6289 40,41.0196 z"
         style="fill:#999999;fill-opacity:1;fill-rule:evenodd;stroke:none"
         id="path96" /><g
         id="g98"
         transform="matrix(-0.0607485,0.914084,1.00848,0.0166874,0,0)"><path
           d="m 66.4124,1903.36 c 3e-4,23.39 -19.7428,42.35 -44.1055,42.35 -24.3541,0.01 -44.1355,-18.96 -44.1358,-42.36 -9e-4,-23.36 19.7805,-42.31 44.1432,-42.31 24.3541,0 44.0972,18.96 44.0981,42.32 z"
           style="fill:none;stroke:#000000;stroke-opacity:1;stroke-width:3.94733;stroke-linecap:butt;stroke-linejoin:miter;stroke-miterlimit:4;stroke-dasharray:none"
           id="path100" /></g><path
         d="m 1662.7,346.922 -76.37,-54.723 -36.68,11.442 c 21.99,8.281 42.81,19.339 61.95,33.007 19.18,13.711 36.68,30 52.03,48.711 l -0.93,-38.437 z"
         style="fill:#b3b3b3;fill-opacity:1;fill-rule:nonzero;stroke:none"
         id="path102" /><path
         d="m 1662.7,346.926 -76.37,-54.731 -36.68,11.45 c 21.99,8.281 42.81,19.332 61.95,33 19.18,13.722 36.68,30 52.03,48.722 l -0.93,-38.441 z"
         style="fill:none;stroke:#000000;stroke-opacity:1;stroke-width:2.89226;stroke-linecap:butt;stroke-linejoin:miter;stroke-miterlimit:4;stroke-dasharray:none"
         id="path104" /><path
         d="m 1697.11,796.961 41.56,-84.262 -17.26,-34.328 c -4.57,23.051 -12.11,45.391 -22.5,66.52 -10.36,21.129 -23.56,41.058 -39.53,59.257 l 37.73,-7.187 z"
         style="fill:#b3b3b3;fill-opacity:1;fill-rule:nonzero;stroke:none"
         id="path106" /><path
         d="m 1697.11,796.965 41.56,-84.258 -17.26,-34.34 c -4.57,23.047 -12.11,45.387 -22.5,66.528 -10.36,21.132 -23.56,41.05 -39.53,59.25 l 37.73,-7.18 z"
         style="fill:none;stroke:#000000;stroke-opacity:1;stroke-width:2.89226;stroke-linecap:butt;stroke-linejoin:miter;stroke-miterlimit:4;stroke-dasharray:none"
         id="path108" /><path
         d="m 1514.14,962.781 c 54.53,-134.531 166.45,-118.16 210.08,-278.793 8.87,-32.648 16.29,-39.758 -7.27,-72.297 -35.93,-49.652 -18.4,-189.101 -48.47,-228.441 -62.07,-81.25 -134.42,-95.82 -215.59,-89.961 -81.13,5.859 -197.54,-23.867 -269.84,30.59 -96.02,72.383 -181.06,219.101 -137.93,333.32 55.39,77.262 -46.6,192.379 54.61,251.871 28.47,47.071 113.79,13.239 135.5,49.879 21.72,36.61 43.91,35.942 78.32,57.781 68.91,43.75 164.93,34.02 200.59,-53.949 z"
         style="fill:#e6e6e6;fill-opacity:1;fill-rule:nonzero;stroke:none"
         id="path110" /><path
         d="m 1514.14,962.785 c 54.53,-134.531 166.45,-118.168 210.08,-278.789 8.87,-32.66 16.29,-39.769 -7.27,-72.308 -35.93,-49.653 -18.4,-189.102 -48.47,-228.434 -62.07,-81.25 -134.42,-95.816 -215.59,-89.969 -81.13,5.86 -197.54,-23.859 -269.84,30.59 -96.02,72.379 -181.06,219.102 -137.93,333.32 55.39,77.27 -46.6,192.379 54.61,251.879 28.47,47.071 113.79,13.242 135.5,49.883 21.72,36.598 43.91,35.938 78.32,57.773 68.91,43.75 164.93,34.02 200.59,-53.945 z"
         style="fill:none;stroke:#000000;stroke-opacity:1;stroke-width:4;stroke-linecap:butt;stroke-linejoin:miter;stroke-miterlimit:4;stroke-dasharray:none"
         id="path112" /><path
         d="M 1696.17,742.98 C 1042.58,588.52 1036.13,586.34 1036.13,586.34"
         style="fill:#e6e6e6;fill-opacity:1;fill-rule:nonzero;stroke:none"
         id="path114" /><path
         d="M 1696.17,742.977 C 1042.58,588.527 1036.13,586.336 1036.13,586.336"
         style="fill:none;stroke:#000000;stroke-opacity:1;stroke-width:4;stroke-linecap:butt;stroke-linejoin:miter;stroke-miterlimit:4;stroke-dasharray:4,4;stroke-dashoffset:0"
         id="path116" /><path
         d="M 1617.07,334.23 C 1041.56,572.352 1032.93,586.379 1032.93,586.379"
         style="fill:#e6e6e6;fill-opacity:1;fill-rule:nonzero;stroke:none"
         id="path118" /><path
         d="M 1617.07,334.227 C 1041.56,572.355 1032.93,586.375 1032.93,586.375"
         style="fill:none;stroke:#000000;stroke-opacity:1;stroke-width:4;stroke-linecap:butt;stroke-linejoin:miter;stroke-miterlimit:4;stroke-dasharray:4,4;stroke-dashoffset:0"
         id="path120" /><path
         d="M 1696.21,746.531 1620.04,335.359"
         style="fill:#e6e6e6;fill-opacity:1;fill-rule:nonzero;stroke:none"
         id="path122" /><path
         d="M 1696.21,746.535 1620.04,335.367"
         style="fill:none;stroke:#000000;stroke-opacity:1;stroke-width:4;stroke-linecap:butt;stroke-linejoin:miter;stroke-miterlimit:4;stroke-dasharray:4,4;stroke-dashoffset:0"
         id="path124" /><path
         d="m 1698.28,748.801 40.67,-110.039"
         style="fill:#b3b3b3;fill-opacity:1;fill-rule:nonzero;stroke:none"
         id="path144" /><path
         d="m 1697.5,746.879 -91.8,-34.68"
         style="fill:#b3b3b3;fill-opacity:1;fill-rule:nonzero;stroke:none"
         id="path152" /><path
         d="m 1697.3,745.949 36.92,90.231"
         style="fill:#b3b3b3;fill-opacity:1;fill-rule:nonzero;stroke:none"
         id="path160" /><path
         d="m 2013.67,1300.75 c 12.07,2.97 24.69,1.41 55.24,26.49 l 8.51,33.24 c 4.69,14.29 30.2,29.18 50,43.87 -4.76,34.68 -0.82,28.63 -32.3,39.41 -33.01,-27.93 -50.63,-40.86 -66.68,-52.23 l -21.64,-8.98 c -12.07,-18.91 -28.13,-44.06 -25.2,-60.43 14.57,-17.89 23.13,-19.1 32.07,-21.37 z"
         style="fill:#999999;fill-opacity:1;fill-rule:nonzero;stroke:none"
         id="path168" /><path
         d="m 2013.67,1300.75 c 12.07,2.96 24.69,1.41 55.24,26.48 l 8.51,33.25 c 4.69,14.3 30.2,29.18 50,43.87 -4.76,34.69 -0.82,28.63 -32.3,39.4 -33.01,-27.93 -50.63,-40.86 -66.68,-52.21 l -21.64,-8.99 c -12.07,-18.91 -28.13,-44.07 -25.2,-60.43 14.57,-17.89 23.13,-19.1 32.07,-21.37 z"
         style="fill:none;stroke:#000000;stroke-opacity:1;stroke-width:4;stroke-linecap:butt;stroke-linejoin:miter;stroke-miterlimit:4;stroke-dasharray:none"
         id="path170" /><path
         d="m 2289.06,1335.2 c 31.21,1.1 53.64,10.24 69.65,25.2 8.83,29.22 18.28,56.72 33.13,69.96 l -52.43,32.19 -43.43,-45.08 -27.82,-53.16 c -9.49,-12.04 11.45,-19.77 20.9,-29.11 z"
         style="fill:#999999;fill-opacity:1;fill-rule:nonzero;stroke:none"
         id="path172" /><path
         d="m 2289.06,1335.21 c 31.21,1.09 53.64,10.23 69.65,25.18 8.83,29.23 18.28,56.73 33.13,69.98 l -52.43,32.18 -43.43,-45.09 -27.82,-53.16 c -9.49,-12.02 11.45,-19.76 20.9,-29.09 z"
         style="fill:none;stroke:#000000;stroke-opacity:1;stroke-width:4;stroke-linecap:butt;stroke-linejoin:miter;stroke-miterlimit:4;stroke-dasharray:none"
         id="path174" /><path
         d="m 2280.16,1426.61 -11.45,27.46 c -52.58,9.03 -57.3,14.34 -101.6,43.52 l -35.16,-39.42 8.09,-39.76 -31.88,-33.75 -89.8,10.15 c -37.11,37.31 -25.74,31.33 -35.27,74.42 56.95,83.24 58.51,163.67 136.79,202.54 144.03,-38.91 227.35,-92.35 331.92,-188.79 -20.71,-16.29 -43.99,-48.71 -75,-76.13 -56.57,0.39 -49.69,-10 -96.64,19.76 z"
         style="fill:#999999;fill-opacity:1;fill-rule:nonzero;stroke:none"
         id="path176" /><path
         d="m 2280.16,1426.61 -11.45,27.46 c -52.58,9.03 -57.3,14.34 -101.6,43.52 l -35.16,-39.41 8.09,-39.77 -31.88,-33.75 -89.8,10.16 c -37.11,37.3 -25.74,31.32 -35.27,74.41 56.95,83.23 58.51,163.66 136.79,202.54 144.03,-38.9 227.35,-92.34 331.92,-188.79 -20.71,-16.29 -43.99,-48.71 -75,-76.13 -56.57,0.38 -49.69,-10 -96.64,19.76 z"
         style="fill:none;stroke:#000000;stroke-opacity:1;stroke-width:4;stroke-linecap:butt;stroke-linejoin:miter;stroke-miterlimit:4;stroke-dasharray:none"
         id="path178" /><path
         d="m 2581.91,1379.5 c -14.88,-10.47 -30.27,-24.3 -57.89,-19.14 l -8.51,24.92 27.58,34.38 38.82,-40.16 z"
         style="fill:#999999;fill-opacity:1;fill-rule:nonzero;stroke:none"
         id="path180" /><path
         d="m 2581.91,1379.5 c -14.88,-10.46 -30.27,-24.29 -57.89,-19.13 l -8.51,24.92 27.58,34.37 38.82,-40.16 z"
         style="fill:none;stroke:#000000;stroke-opacity:1;stroke-width:4;stroke-linecap:butt;stroke-linejoin:miter;stroke-miterlimit:4;stroke-dasharray:none"
         id="path182" /><path
         d="m 1882.58,1537.7 -20.04,-31.32 -30.55,-19.34 c -10.31,9.81 -22.3,5.12 -34.37,-0.51 l 14.22,46.17 29.33,40.75 41.41,-35.75 z"
         style="fill:#999999;fill-opacity:1;fill-rule:nonzero;stroke:none"
         id="path184" /><path
         d="m 1882.58,1537.71 -20.04,-31.33 -30.55,-19.34 c -10.31,9.81 -22.3,5.12 -34.37,-0.5 l 14.22,46.17 29.33,40.74 41.41,-35.74 z"
         style="fill:none;stroke:#000000;stroke-opacity:1;stroke-width:4;stroke-linecap:butt;stroke-linejoin:miter;stroke-miterlimit:4;stroke-dasharray:none"
         id="path186" /><path
         d="m 1884.84,1534.93 c -29.29,0 -38,18.4 -46.4,37.15 l 30.27,49.06 c 5.9,32.31 8.17,46.96 15.51,57.89 7.34,10.94 19.8,18.09 46.05,35.28 8.87,43.2 28.64,54.68 70.2,101.48 26.25,-11.05 22.03,-11.25 35.58,4.57 l 72.11,30.86 49.38,-15.16 16.41,8.25 70.15,-22.74 164.02,-78.44 152.04,-102.57 17.5,-23.4 10.62,-38.67 46.64,-66.88 22.19,-32.07 -16.13,-38.01 -2.62,-28.04 -38.87,-33.75 c -22.15,1.17 -41.91,9.37 -55.35,21.6 -6.76,12.93 -5,20.9 -2.54,32.5 l -44.41,27.15 -42.46,17.11 -28.79,-12.97 -16.8,-39.11 -107.07,15.94 c -78.87,10.55 -103.36,38.17 -157.77,92.58 l -73.83,86.99 -13.67,43.4 -53.95,-16.17 c -10.97,-19.18 -24.06,-34.57 -33.94,-42.93 -9.93,-8.36 -16.68,-9.69 -37.03,-19.65 l -47.04,-51.25 z"
         style="fill:#999999;fill-opacity:1;fill-rule:nonzero;stroke:none"
         id="path188" /><path
         d="m 1884.84,1534.94 c -29.29,0 -38,18.38 -46.4,37.13 l 30.27,49.07 c 5.9,32.31 8.17,46.96 15.51,57.9 7.34,10.92 19.8,18.08 46.05,35.26 8.87,43.2 28.64,54.7 70.2,101.49 26.25,-11.06 22.03,-11.25 35.58,4.58 l 72.11,30.84 49.38,-15.14 16.41,8.23 70.15,-22.73 164.02,-78.43 152.04,-102.59 17.5,-23.39 10.62,-38.68 46.64,-66.87 22.19,-32.07 -16.13,-38 -2.62,-28.06 -38.87,-33.75 c -22.15,1.18 -41.91,9.38 -55.35,21.61 -6.76,12.93 -5,20.89 -2.54,32.5 l -44.41,27.14 -42.46,17.12 -28.79,-12.97 -16.8,-39.1 -107.07,15.93 c -78.87,10.54 -103.36,38.17 -157.77,92.58 l -73.83,87 -13.67,43.4 -53.95,-16.19 c -10.97,-19.18 -24.06,-34.56 -33.94,-42.93 -9.93,-8.36 -16.68,-9.68 -37.03,-19.63 l -47.04,-51.25 z"
         style="fill:none;stroke:#000000;stroke-opacity:1;stroke-width:4;stroke-linecap:butt;stroke-linejoin:miter;stroke-miterlimit:4;stroke-dasharray:none"
         id="path190" /><path
         d="m 2364.45,1630.52 c -13.63,-15.94 -41.95,-24.65 -65.5,-31.17 -62.86,-17.47 -94.89,11.17 -109.38,54.06 -20.16,26.64 -16.41,73.47 -1.45,114.8 4.81,24.81 -8.35,28.6 19.03,26.25 34.92,36.8 47.77,36.21 93.87,30 28.75,-11.05 59.68,-31.36 83.08,-50.74 44.69,-59.8 27.62,-45.78 9.53,-99.34 37.85,-10.43 -8.86,-57.38 -29.18,-43.86 z"
         style="fill:#999999;fill-opacity:1;fill-rule:nonzero;stroke:none"
         id="path192" /><path
         d="m 2364.45,1630.52 c -13.63,-15.95 -41.95,-24.65 -65.5,-31.17 -62.86,-17.46 -94.89,11.17 -109.38,54.06 -20.16,26.64 -16.41,73.48 -1.45,114.8 4.81,24.81 -8.35,28.59 19.03,26.25 34.92,36.79 47.77,36.22 93.87,30 28.75,-11.05 59.68,-31.36 83.08,-50.75 44.69,-59.8 27.62,-45.77 9.53,-99.32 37.85,-10.43 -8.86,-57.39 -29.18,-43.87 z"
         style="fill:none;stroke:#000000;stroke-opacity:1;stroke-width:4;stroke-linecap:butt;stroke-linejoin:miter;stroke-miterlimit:4;stroke-dasharray:none"
         id="path194" /><path
         d="m 2366.02,1631.53 c -44.54,28.95 -14.54,29.57 -58.4,18.01 -31.29,18.01 -60.35,35.94 -82.97,51.06 -8.28,43.16 -2.89,21.71 -52.46,35 0,0 22.38,43.82 23.47,40.62 0.67,-1.95 28.91,45.27 31.22,43.98 31.36,18.95 58.86,11.84 88.86,2.86 21.92,-10.08 61.06,-35.75 79.38,-52.11 29.68,-48.4 21.29,-38.64 14.1,-78.01 -14.81,-21.49 -28.91,-41.37 -43.2,-61.41 z"
         style="fill:#999999;fill-opacity:1;fill-rule:nonzero;stroke:none"
         id="path196" /><path
         d="m 2366.02,1631.54 c -44.54,28.94 -14.54,29.57 -58.4,18 -31.29,18.01 -60.35,35.94 -82.97,51.06 -8.28,43.15 -2.89,21.72 -52.46,35 0,0 22.38,43.83 23.47,40.61 0.67,-1.94 28.91,45.29 31.22,44 31.36,18.93 58.86,11.83 88.86,2.84 21.92,-10.07 61.06,-35.73 79.38,-52.1 29.68,-48.4 21.29,-38.63 14.1,-78.01 -14.81,-21.48 -28.91,-41.37 -43.2,-61.4 z"
         style="fill:none;stroke:#000000;stroke-opacity:1;stroke-width:4;stroke-linecap:butt;stroke-linejoin:miter;stroke-miterlimit:4;stroke-dasharray:none"
         id="path198" /><path
         d="m 1033.79,585.785 c 789.96,903.405 781.8,907.395 781.8,907.395"
         style="fill:none;stroke:#000000;stroke-opacity:1;stroke-width:4;stroke-linecap:butt;stroke-linejoin:miter;stroke-miterlimit:4;stroke-dasharray:4,4;stroke-dashoffset:0"
         id="path200" /><path
         d="m 1698.01,745.246 116.6,749.054"
         style="fill:none;stroke:#000000;stroke-opacity:1;stroke-width:4;stroke-linecap:butt;stroke-linejoin:miter;stroke-miterlimit:4;stroke-dasharray:4,4;stroke-dashoffset:0"
         id="path202" /><path
         d="M 5.42969,570.871 C 65.9414,686.488 135.16,818.719 196.48,935.91 228.199,996.57 410.16,901.34 378.398,840.711 L 187.34,475.629 C 155.59,415.012 -26.3281,510.199 5.42969,570.871 z"
         style="fill:#b3b3b3;fill-opacity:1;fill-rule:nonzero;stroke:none"
         id="path234" /><path
         d="M 5.42969,570.867 C 65.9414,686.496 135.16,818.715 196.48,935.906 c 31.719,60.668 213.68,-34.57 181.918,-95.191 L 187.34,475.637 c -31.75,-60.633 -213.6681,34.57 -181.91031,95.23 z"
         style="fill:none;stroke:#000000;stroke-opacity:1;stroke-width:3.56879;stroke-linecap:butt;stroke-linejoin:miter;stroke-miterlimit:4;stroke-dasharray:none"
         id="path236" /></g></g></svg>